<?xml version="1.0" encoding="UTF-8" standalone="no"?>
<!DOCTYPE svg PUBLIC "-//W3C//DTD SVG 1.1//EN"
 "http://www.w3.org/Graphics/SVG/1.1/DTD/svg11.dtd">
<!-- Generated by graphviz version 2.40.1 (20161225.0304)
 -->
<!-- Title: UmlClassDiagram Pages: 1 -->
<svg width="1913pt" height="1344pt"
 viewBox="0.00 0.00 1912.91 1344.20" xmlns="http://www.w3.org/2000/svg" xmlns:xlink="http://www.w3.org/1999/xlink">
<g id="graph0" class="graph" transform="scale(1 1) rotate(0) translate(4 1340.2)">
<title>UmlClassDiagram</title>
<polygon fill="#ffffff" stroke="transparent" points="-4,4 -4,-1340.2 1908.9069,-1340.2 1908.9069,4 -4,4"/>
<!-- 0 -->
<g id="node1" class="node">
<title>0</title>
<polygon fill="#f2f2f2" stroke="#000000" points="456.2276,-1007.1 456.2276,-1131.9 674.3722,-1131.9 674.3722,-1007.1 456.2276,-1007.1"/>
<text text-anchor="middle" x="565.2999" y="-1115.3" font-family="Times,serif" font-size="14.00" fill="#000000">&lt;&lt;Abstract&gt;&gt;</text>
<text text-anchor="middle" x="565.2999" y="-1098.5" font-family="Times,serif" font-size="14.00" fill="#000000">Context</text>
<polyline fill="none" stroke="#000000" points="456.2276,-1090.3 674.3722,-1090.3 "/>
<text text-anchor="middle" x="565.2999" y="-1073.7" font-family="Times,serif" font-size="14.00" fill="#000000"> </text>
<polyline fill="none" stroke="#000000" points="456.2276,-1065.5 674.3722,-1065.5 "/>
<text text-anchor="start" x="464.2276" y="-1048.9" font-family="Times,serif" font-size="14.00" fill="#000000">Internal:</text>
<text text-anchor="start" x="464.2276" y="-1032.1" font-family="Times,serif" font-size="14.00" fill="#000000"> &#160;&#160;&#160;_msgSender(): (payable: address)</text>
<text text-anchor="start" x="464.2276" y="-1015.3" font-family="Times,serif" font-size="14.00" fill="#000000"> &#160;&#160;&#160;_msgData(): bytes</text>
</g>
<!-- 1 -->
<g id="node2" class="node">
<title>1</title>
<polygon fill="#f2f2f2" stroke="#000000" points="0,-948.3 0,-1190.7 438.5998,-1190.7 438.5998,-948.3 0,-948.3"/>
<text text-anchor="middle" x="219.2999" y="-1174.1" font-family="Times,serif" font-size="14.00" fill="#000000">&lt;&lt;Interface&gt;&gt;</text>
<text text-anchor="middle" x="219.2999" y="-1157.3" font-family="Times,serif" font-size="14.00" fill="#000000">IERC20</text>
<polyline fill="none" stroke="#000000" points="0,-1149.1 438.5998,-1149.1 "/>
<text text-anchor="middle" x="219.2999" y="-1132.5" font-family="Times,serif" font-size="14.00" fill="#000000"> </text>
<polyline fill="none" stroke="#000000" points="0,-1124.3 438.5998,-1124.3 "/>
<text text-anchor="start" x="8" y="-1107.7" font-family="Times,serif" font-size="14.00" fill="#000000">External:</text>
<text text-anchor="start" x="8" y="-1090.9" font-family="Times,serif" font-size="14.00" fill="#000000"> &#160;&#160;&#160;&#160;totalSupply(): uint256</text>
<text text-anchor="start" x="8" y="-1074.1" font-family="Times,serif" font-size="14.00" fill="#000000"> &#160;&#160;&#160;&#160;balanceOf(account: address): uint256</text>
<text text-anchor="start" x="8" y="-1057.3" font-family="Times,serif" font-size="14.00" fill="#000000"> &#160;&#160;&#160;&#160;transfer(recipient: address, amount: uint256): bool</text>
<text text-anchor="start" x="8" y="-1040.5" font-family="Times,serif" font-size="14.00" fill="#000000"> &#160;&#160;&#160;&#160;allowance(owner: address, spender: address): uint256</text>
<text text-anchor="start" x="8" y="-1023.7" font-family="Times,serif" font-size="14.00" fill="#000000"> &#160;&#160;&#160;&#160;approve(spender: address, amount: uint256): bool</text>
<text text-anchor="start" x="8" y="-1006.9" font-family="Times,serif" font-size="14.00" fill="#000000"> &#160;&#160;&#160;&#160;transferFrom(sender: address, recipient: address, amount: uint256): bool</text>
<text text-anchor="start" x="8" y="-990.1" font-family="Times,serif" font-size="14.00" fill="#000000">Public:</text>
<text text-anchor="start" x="8" y="-973.3" font-family="Times,serif" font-size="14.00" fill="#000000"> &#160;&#160;&#160;&lt;&lt;event&gt;&gt; Transfer(from: address, to: address, value: uint256)</text>
<text text-anchor="start" x="8" y="-956.5" font-family="Times,serif" font-size="14.00" fill="#000000"> &#160;&#160;&#160;&lt;&lt;event&gt;&gt; Approval(owner: address, spender: address, value: uint256)</text>
</g>
<!-- 2 -->
<g id="node3" class="node">
<title>2</title>
<polygon fill="#f2f2f2" stroke="#000000" points="1306.6035,-956.7 1306.6035,-1182.3 1663.9963,-1182.3 1663.9963,-956.7 1306.6035,-956.7"/>
<text text-anchor="middle" x="1485.2999" y="-1165.7" font-family="Times,serif" font-size="14.00" fill="#000000">&lt;&lt;Library&gt;&gt;</text>
<text text-anchor="middle" x="1485.2999" y="-1148.9" font-family="Times,serif" font-size="14.00" fill="#000000">SafeMath</text>
<polyline fill="none" stroke="#000000" points="1306.6035,-1140.7 1663.9963,-1140.7 "/>
<text text-anchor="middle" x="1485.2999" y="-1124.1" font-family="Times,serif" font-size="14.00" fill="#000000"> </text>
<polyline fill="none" stroke="#000000" points="1306.6035,-1115.9 1663.9963,-1115.9 "/>
<text text-anchor="start" x="1314.6035" y="-1099.3" font-family="Times,serif" font-size="14.00" fill="#000000">Internal:</text>
<text text-anchor="start" x="1314.6035" y="-1082.5" font-family="Times,serif" font-size="14.00" fill="#000000"> &#160;&#160;&#160;add(a: uint256, b: uint256): uint256</text>
<text text-anchor="start" x="1314.6035" y="-1065.7" font-family="Times,serif" font-size="14.00" fill="#000000"> &#160;&#160;&#160;sub(a: uint256, b: uint256): uint256</text>
<text text-anchor="start" x="1314.6035" y="-1048.9" font-family="Times,serif" font-size="14.00" fill="#000000"> &#160;&#160;&#160;sub(a: uint256, b: uint256, errorMessage: string): uint256</text>
<text text-anchor="start" x="1314.6035" y="-1032.1" font-family="Times,serif" font-size="14.00" fill="#000000"> &#160;&#160;&#160;mul(a: uint256, b: uint256): uint256</text>
<text text-anchor="start" x="1314.6035" y="-1015.3" font-family="Times,serif" font-size="14.00" fill="#000000"> &#160;&#160;&#160;div(a: uint256, b: uint256): uint256</text>
<text text-anchor="start" x="1314.6035" y="-998.5" font-family="Times,serif" font-size="14.00" fill="#000000"> &#160;&#160;&#160;div(a: uint256, b: uint256, errorMessage: string): uint256</text>
<text text-anchor="start" x="1314.6035" y="-981.7" font-family="Times,serif" font-size="14.00" fill="#000000"> &#160;&#160;&#160;mod(a: uint256, b: uint256): uint256</text>
<text text-anchor="start" x="1314.6035" y="-964.9" font-family="Times,serif" font-size="14.00" fill="#000000"> &#160;&#160;&#160;mod(a: uint256, b: uint256, errorMessage: string): uint256</text>
</g>
<!-- 3 -->
<g id="node4" class="node">
<title>3</title>
<polygon fill="#f2f2f2" stroke="#000000" points="692.0827,-956.7 692.0827,-1182.3 1288.5171,-1182.3 1288.5171,-956.7 692.0827,-956.7"/>
<text text-anchor="middle" x="990.2999" y="-1165.7" font-family="Times,serif" font-size="14.00" fill="#000000">&lt;&lt;Library&gt;&gt;</text>
<text text-anchor="middle" x="990.2999" y="-1148.9" font-family="Times,serif" font-size="14.00" fill="#000000">Address</text>
<polyline fill="none" stroke="#000000" points="692.0827,-1140.7 1288.5171,-1140.7 "/>
<text text-anchor="middle" x="990.2999" y="-1124.1" font-family="Times,serif" font-size="14.00" fill="#000000"> </text>
<polyline fill="none" stroke="#000000" points="692.0827,-1115.9 1288.5171,-1115.9 "/>
<text text-anchor="start" x="700.0827" y="-1099.3" font-family="Times,serif" font-size="14.00" fill="#000000">Private:</text>
<text text-anchor="start" x="700.0827" y="-1082.5" font-family="Times,serif" font-size="14.00" fill="#000000"> &#160;&#160;&#160;_functionCallWithValue(target: address, data: bytes, weiValue: uint256, errorMessage: string): bytes</text>
<text text-anchor="start" x="700.0827" y="-1065.7" font-family="Times,serif" font-size="14.00" fill="#000000">Internal:</text>
<text text-anchor="start" x="700.0827" y="-1048.9" font-family="Times,serif" font-size="14.00" fill="#000000"> &#160;&#160;&#160;isContract(account: address): bool</text>
<text text-anchor="start" x="700.0827" y="-1032.1" font-family="Times,serif" font-size="14.00" fill="#000000"> &#160;&#160;&#160;sendValue(recipient: address, amount: uint256)</text>
<text text-anchor="start" x="700.0827" y="-1015.3" font-family="Times,serif" font-size="14.00" fill="#000000"> &#160;&#160;&#160;functionCall(target: address, data: bytes): bytes</text>
<text text-anchor="start" x="700.0827" y="-998.5" font-family="Times,serif" font-size="14.00" fill="#000000"> &#160;&#160;&#160;functionCall(target: address, data: bytes, errorMessage: string): bytes</text>
<text text-anchor="start" x="700.0827" y="-981.7" font-family="Times,serif" font-size="14.00" fill="#000000"> &#160;&#160;&#160;functionCallWithValue(target: address, data: bytes, value: uint256): bytes</text>
<text text-anchor="start" x="700.0827" y="-964.9" font-family="Times,serif" font-size="14.00" fill="#000000"> &#160;&#160;&#160;functionCallWithValue(target: address, data: bytes, value: uint256, errorMessage: string): bytes</text>
</g>
<!-- 4 -->
<g id="node5" class="node">
<title>4</title>
<polygon fill="#f2f2f2" stroke="#000000" points="347.75,-416.9 347.75,-911.3 782.8498,-911.3 782.8498,-416.9 347.75,-416.9"/>
<text text-anchor="middle" x="565.2999" y="-894.7" font-family="Times,serif" font-size="14.00" fill="#000000">ERC20</text>
<polyline fill="none" stroke="#000000" points="347.75,-886.5 782.8498,-886.5 "/>
<text text-anchor="start" x="355.75" y="-869.9" font-family="Times,serif" font-size="14.00" fill="#000000">Private:</text>
<text text-anchor="start" x="355.75" y="-853.1" font-family="Times,serif" font-size="14.00" fill="#000000"> &#160;&#160;_balances: mapping(address=&gt;uint256)</text>
<text text-anchor="start" x="355.75" y="-836.3" font-family="Times,serif" font-size="14.00" fill="#000000"> &#160;&#160;_allowances: mapping(address=&gt;mapping(address=&gt;uint256))</text>
<text text-anchor="start" x="355.75" y="-819.5" font-family="Times,serif" font-size="14.00" fill="#000000"> &#160;&#160;_totalSupply: uint256</text>
<text text-anchor="start" x="355.75" y="-802.7" font-family="Times,serif" font-size="14.00" fill="#000000"> &#160;&#160;_name: string</text>
<text text-anchor="start" x="355.75" y="-785.9" font-family="Times,serif" font-size="14.00" fill="#000000"> &#160;&#160;_symbol: string</text>
<text text-anchor="start" x="355.75" y="-769.1" font-family="Times,serif" font-size="14.00" fill="#000000"> &#160;&#160;_decimals: uint8</text>
<polyline fill="none" stroke="#000000" points="347.75,-760.9 782.8498,-760.9 "/>
<text text-anchor="start" x="355.75" y="-744.3" font-family="Times,serif" font-size="14.00" fill="#000000">Internal:</text>
<text text-anchor="start" x="355.75" y="-727.5" font-family="Times,serif" font-size="14.00" fill="#000000"> &#160;&#160;&#160;_transfer(sender: address, recipient: address, amount: uint256)</text>
<text text-anchor="start" x="355.75" y="-710.7" font-family="Times,serif" font-size="14.00" fill="#000000"> &#160;&#160;&#160;_mint(account: address, amount: uint256)</text>
<text text-anchor="start" x="355.75" y="-693.9" font-family="Times,serif" font-size="14.00" fill="#000000"> &#160;&#160;&#160;_burn(account: address, amount: uint256)</text>
<text text-anchor="start" x="355.75" y="-677.1" font-family="Times,serif" font-size="14.00" fill="#000000"> &#160;&#160;&#160;_approve(owner: address, spender: address, amount: uint256)</text>
<text text-anchor="start" x="355.75" y="-660.3" font-family="Times,serif" font-size="14.00" fill="#000000"> &#160;&#160;&#160;_setupDecimals(decimals_: uint8)</text>
<text text-anchor="start" x="355.75" y="-643.5" font-family="Times,serif" font-size="14.00" fill="#000000"> &#160;&#160;&#160;_beforeTokenTransfer(from: address, to: address, amount: uint256)</text>
<text text-anchor="start" x="355.75" y="-626.7" font-family="Times,serif" font-size="14.00" fill="#000000">Public:</text>
<text text-anchor="start" x="355.75" y="-609.9" font-family="Times,serif" font-size="14.00" fill="#000000"> &#160;&#160;&#160;constructor(name: string, symbol: string)</text>
<text text-anchor="start" x="355.75" y="-593.1" font-family="Times,serif" font-size="14.00" fill="#000000"> &#160;&#160;&#160;name(): string</text>
<text text-anchor="start" x="355.75" y="-576.3" font-family="Times,serif" font-size="14.00" fill="#000000"> &#160;&#160;&#160;symbol(): string</text>
<text text-anchor="start" x="355.75" y="-559.5" font-family="Times,serif" font-size="14.00" fill="#000000"> &#160;&#160;&#160;decimals(): uint8</text>
<text text-anchor="start" x="355.75" y="-542.7" font-family="Times,serif" font-size="14.00" fill="#000000"> &#160;&#160;&#160;totalSupply(): uint256</text>
<text text-anchor="start" x="355.75" y="-525.9" font-family="Times,serif" font-size="14.00" fill="#000000"> &#160;&#160;&#160;balanceOf(account: address): uint256</text>
<text text-anchor="start" x="355.75" y="-509.1" font-family="Times,serif" font-size="14.00" fill="#000000"> &#160;&#160;&#160;transfer(recipient: address, amount: uint256): bool</text>
<text text-anchor="start" x="355.75" y="-492.3" font-family="Times,serif" font-size="14.00" fill="#000000"> &#160;&#160;&#160;allowance(owner: address, spender: address): uint256</text>
<text text-anchor="start" x="355.75" y="-475.5" font-family="Times,serif" font-size="14.00" fill="#000000"> &#160;&#160;&#160;approve(spender: address, amount: uint256): bool</text>
<text text-anchor="start" x="355.75" y="-458.7" font-family="Times,serif" font-size="14.00" fill="#000000"> &#160;&#160;&#160;transferFrom(sender: address, recipient: address, amount: uint256): bool</text>
<text text-anchor="start" x="355.75" y="-441.9" font-family="Times,serif" font-size="14.00" fill="#000000"> &#160;&#160;&#160;increaseAllowance(spender: address, addedValue: uint256): bool</text>
<text text-anchor="start" x="355.75" y="-425.1" font-family="Times,serif" font-size="14.00" fill="#000000"> &#160;&#160;&#160;decreaseAllowance(spender: address, subtractedValue: uint256): bool</text>
</g>
<!-- 4&#45;&gt;0 -->
<g id="edge2" class="edge">
<title>4&#45;&gt;0</title>
<path fill="none" stroke="#000000" d="M565.2999,-911.3105C565.2999,-934.3573 565.2999,-956.5966 565.2999,-976.7553"/>
<polygon fill="none" stroke="#000000" points="554.8,-977.0196 565.2999,-1007.0196 575.8,-977.0196 554.8,-977.0196"/>
</g>
<!-- 4&#45;&gt;1 -->
<g id="edge3" class="edge">
<title>4&#45;&gt;1</title>
<path fill="none" stroke="#000000" stroke-dasharray="5,2" d="M354.3111,-911.3105C350.3791,-915.9176 346.4747,-920.4923 342.6064,-925.0247"/>
<polygon fill="none" stroke="#000000" points="334.4628,-918.3922 322.9739,-948.0276 350.4361,-932.025 334.4628,-918.3922"/>
</g>
<!-- 4&#45;&gt;2 -->
<g id="edge4" class="edge">
<title>4&#45;&gt;2</title>
<path fill="none" stroke="#000000" stroke-dasharray="5,2" d="M782.9157,-907.0422C786.0203,-908.6902 789.1486,-910.2775 792.2999,-911.8 893.603,-960.744 1190.605,-912.1064 1297.2999,-947.8 1301.8974,-949.338 1306.493,-951.015 1311.0761,-952.8136"/>
<polygon fill="#000000" stroke="#000000" points="1309.8824,-956.107 1320.4622,-956.6709 1312.5433,-949.6324 1309.8824,-956.107"/>
</g>
<!-- 4&#45;&gt;3 -->
<g id="edge5" class="edge">
<title>4&#45;&gt;3</title>
<path fill="none" stroke="#000000" stroke-dasharray="5,2" d="M783.0059,-903.0435C786.1089,-905.9947 789.2079,-908.915 792.2999,-911.8 805.9808,-924.565 820.588,-937.4462 835.435,-950.0518"/>
<polygon fill="#000000" stroke="#000000" points="833.3168,-952.844 843.2173,-956.6166 837.8303,-947.4934 833.3168,-952.844"/>
</g>
<!-- 5 -->
<g id="node6" class="node">
<title>5</title>
<polygon fill="#f2f2f2" stroke="#000000" points="801.1434,-559.7 801.1434,-768.5 1263.4564,-768.5 1263.4564,-559.7 801.1434,-559.7"/>
<text text-anchor="middle" x="1032.2999" y="-751.9" font-family="Times,serif" font-size="14.00" fill="#000000">&lt;&lt;Library&gt;&gt;</text>
<text text-anchor="middle" x="1032.2999" y="-735.1" font-family="Times,serif" font-size="14.00" fill="#000000">SafeERC20</text>
<polyline fill="none" stroke="#000000" points="801.1434,-726.9 1263.4564,-726.9 "/>
<text text-anchor="middle" x="1032.2999" y="-710.3" font-family="Times,serif" font-size="14.00" fill="#000000"> </text>
<polyline fill="none" stroke="#000000" points="801.1434,-702.1 1263.4564,-702.1 "/>
<text text-anchor="start" x="809.1434" y="-685.5" font-family="Times,serif" font-size="14.00" fill="#000000">Private:</text>
<text text-anchor="start" x="809.1434" y="-668.7" font-family="Times,serif" font-size="14.00" fill="#000000"> &#160;&#160;&#160;_callOptionalReturn(token: IERC20, data: bytes)</text>
<text text-anchor="start" x="809.1434" y="-651.9" font-family="Times,serif" font-size="14.00" fill="#000000">Internal:</text>
<text text-anchor="start" x="809.1434" y="-635.1" font-family="Times,serif" font-size="14.00" fill="#000000"> &#160;&#160;&#160;safeTransfer(token: IERC20, to: address, value: uint256)</text>
<text text-anchor="start" x="809.1434" y="-618.3" font-family="Times,serif" font-size="14.00" fill="#000000"> &#160;&#160;&#160;safeTransferFrom(token: IERC20, from: address, to: address, value: uint256)</text>
<text text-anchor="start" x="809.1434" y="-601.5" font-family="Times,serif" font-size="14.00" fill="#000000"> &#160;&#160;&#160;safeApprove(token: IERC20, spender: address, value: uint256)</text>
<text text-anchor="start" x="809.1434" y="-584.7" font-family="Times,serif" font-size="14.00" fill="#000000"> &#160;&#160;&#160;safeIncreaseAllowance(token: IERC20, spender: address, value: uint256)</text>
<text text-anchor="start" x="809.1434" y="-567.9" font-family="Times,serif" font-size="14.00" fill="#000000"> &#160;&#160;&#160;safeDecreaseAllowance(token: IERC20, spender: address, value: uint256)</text>
</g>
<!-- 5&#45;&gt;1 -->
<g id="edge8" class="edge">
<title>5&#45;&gt;1</title>
<path fill="none" stroke="#000000" stroke-dasharray="5,2" d="M959.1638,-768.8074C916.7624,-820.9164 858.6699,-879.5283 792.2999,-911.8 656.6338,-977.7662 597.2797,-905.8859 448.8286,-947.5532"/>
<polygon fill="#000000" stroke="#000000" points="447.5275,-944.2875 438.9197,-950.4647 449.5009,-951.0036 447.5275,-944.2875"/>
</g>
<!-- 5&#45;&gt;2 -->
<g id="edge6" class="edge">
<title>5&#45;&gt;2</title>
<path fill="none" stroke="#000000" stroke-dasharray="5,2" d="M1126.2199,-768.5018C1169.1373,-814.2101 1221.6226,-867.4199 1272.2999,-911.8 1286.8907,-924.5777 1302.4513,-937.4231 1318.2669,-949.9675"/>
<polygon fill="#000000" stroke="#000000" points="1316.5357,-953.0592 1326.5569,-956.498 1320.8674,-947.5604 1316.5357,-953.0592"/>
</g>
<!-- 5&#45;&gt;3 -->
<g id="edge7" class="edge">
<title>5&#45;&gt;3</title>
<path fill="none" stroke="#000000" stroke-dasharray="5,2" d="M1021.4839,-768.5006C1015.8549,-822.8336 1008.9378,-889.5995 1003.0497,-946.4338"/>
<polygon fill="#000000" stroke="#000000" points="999.55,-946.2513 1002.0008,-956.5588 1006.5127,-946.9727 999.55,-946.2513"/>
</g>
<!-- 6 -->
<g id="node7" class="node">
<title>6</title>
<polygon fill="#f2f2f2" stroke="#000000" points="1681.6929,-1015.5 1681.6929,-1123.5 1904.9069,-1123.5 1904.9069,-1015.5 1681.6929,-1015.5"/>
<text text-anchor="middle" x="1793.2999" y="-1106.9" font-family="Times,serif" font-size="14.00" fill="#000000">&lt;&lt;Interface&gt;&gt;</text>
<text text-anchor="middle" x="1793.2999" y="-1090.1" font-family="Times,serif" font-size="14.00" fill="#000000">ENS</text>
<polyline fill="none" stroke="#000000" points="1681.6929,-1081.9 1904.9069,-1081.9 "/>
<text text-anchor="middle" x="1793.2999" y="-1065.3" font-family="Times,serif" font-size="14.00" fill="#000000"> </text>
<polyline fill="none" stroke="#000000" points="1681.6929,-1057.1 1904.9069,-1057.1 "/>
<text text-anchor="start" x="1689.6929" y="-1040.5" font-family="Times,serif" font-size="14.00" fill="#000000">External:</text>
<text text-anchor="start" x="1689.6929" y="-1023.7" font-family="Times,serif" font-size="14.00" fill="#000000"> &#160;&#160;&#160;&#160;resolver(node: bytes32): Resolver</text>
</g>
<!-- 7 -->
<g id="node8" class="node">
<title>7</title>
<polygon fill="#f2f2f2" stroke="#000000" points="1695.6894,-1227.7 1695.6894,-1335.7 1890.9104,-1335.7 1890.9104,-1227.7 1695.6894,-1227.7"/>
<text text-anchor="middle" x="1793.2999" y="-1319.1" font-family="Times,serif" font-size="14.00" fill="#000000">&lt;&lt;Interface&gt;&gt;</text>
<text text-anchor="middle" x="1793.2999" y="-1302.3" font-family="Times,serif" font-size="14.00" fill="#000000">Resolver</text>
<polyline fill="none" stroke="#000000" points="1695.6894,-1294.1 1890.9104,-1294.1 "/>
<text text-anchor="middle" x="1793.2999" y="-1277.5" font-family="Times,serif" font-size="14.00" fill="#000000"> </text>
<polyline fill="none" stroke="#000000" points="1695.6894,-1269.3 1890.9104,-1269.3 "/>
<text text-anchor="start" x="1703.6894" y="-1252.7" font-family="Times,serif" font-size="14.00" fill="#000000">External:</text>
<text text-anchor="start" x="1703.6894" y="-1235.9" font-family="Times,serif" font-size="14.00" fill="#000000"> &#160;&#160;&#160;&#160;addr(node: bytes32): address</text>
</g>
<!-- 6&#45;&gt;7 -->
<g id="edge9" class="edge">
<title>6&#45;&gt;7</title>
<path fill="none" stroke="#000000" stroke-dasharray="5,2" d="M1793.2999,-1123.5961C1793.2999,-1152.045 1793.2999,-1187.121 1793.2999,-1217.0012"/>
<polygon fill="#000000" stroke="#000000" points="1789.8,-1217.3341 1793.2999,-1227.3342 1796.8,-1217.3342 1789.8,-1217.3341"/>
</g>
<!-- 8 -->
<g id="node9" class="node">
<title>8</title>
<polygon fill="#f2f2f2" stroke="#000000" points="1281.5407,-593.3 1281.5407,-734.9 1605.0591,-734.9 1605.0591,-593.3 1281.5407,-593.3"/>
<text text-anchor="middle" x="1443.2999" y="-718.3" font-family="Times,serif" font-size="14.00" fill="#000000">EnsResolve</text>
<polyline fill="none" stroke="#000000" points="1281.5407,-710.1 1605.0591,-710.1 "/>
<text text-anchor="middle" x="1443.2999" y="-693.5" font-family="Times,serif" font-size="14.00" fill="#000000"> </text>
<polyline fill="none" stroke="#000000" points="1281.5407,-685.3 1605.0591,-685.3 "/>
<text text-anchor="start" x="1289.5407" y="-668.7" font-family="Times,serif" font-size="14.00" fill="#000000">Internal:</text>
<text text-anchor="start" x="1289.5407" y="-651.9" font-family="Times,serif" font-size="14.00" fill="#000000"> &#160;&#160;&#160;getChainId(): uint256</text>
<text text-anchor="start" x="1289.5407" y="-635.1" font-family="Times,serif" font-size="14.00" fill="#000000">Public:</text>
<text text-anchor="start" x="1289.5407" y="-618.3" font-family="Times,serif" font-size="14.00" fill="#000000"> &#160;&#160;&#160;resolve(node: bytes32): address</text>
<text text-anchor="start" x="1289.5407" y="-601.5" font-family="Times,serif" font-size="14.00" fill="#000000"> &#160;&#160;&#160;bulkResolve(domains: bytes32[]): (result: address[])</text>
</g>
<!-- 8&#45;&gt;6 -->
<g id="edge10" class="edge">
<title>8&#45;&gt;6</title>
<path fill="none" stroke="#000000" stroke-dasharray="5,2" d="M1504.6658,-735.1792C1571.2498,-812.3026 1676.5005,-934.2129 1739.8228,-1007.5582"/>
<polygon fill="#000000" stroke="#000000" points="1737.3895,-1010.0957 1746.5738,-1015.3778 1742.6881,-1005.5212 1737.3895,-1010.0957"/>
</g>
<!-- 9 -->
<g id="node10" class="node">
<title>9</title>
<polygon fill="#f2f2f2" stroke="#000000" points="521.6441,-120.7 521.6441,-379.9 1074.9557,-379.9 1074.9557,-120.7 521.6441,-120.7"/>
<text text-anchor="middle" x="798.2999" y="-363.3" font-family="Times,serif" font-size="14.00" fill="#000000">Voucher</text>
<polyline fill="none" stroke="#000000" points="521.6441,-355.1 1074.9557,-355.1 "/>
<text text-anchor="start" x="529.6441" y="-338.5" font-family="Times,serif" font-size="14.00" fill="#000000">Public:</text>
<text text-anchor="start" x="529.6441" y="-321.7" font-family="Times,serif" font-size="14.00" fill="#000000"> &#160;&#160;torn: IERC20</text>
<text text-anchor="start" x="529.6441" y="-304.9" font-family="Times,serif" font-size="14.00" fill="#000000"> &#160;&#160;expiresAt: uint256</text>
<text text-anchor="start" x="529.6441" y="-288.1" font-family="Times,serif" font-size="14.00" fill="#000000"> &#160;&#160;governance: address</text>
<text text-anchor="start" x="529.6441" y="-271.3" font-family="Times,serif" font-size="14.00" fill="#000000"> &#160;&#160;allowedTransferee: mapping(address=&gt;bool)</text>
<polyline fill="none" stroke="#000000" points="521.6441,-263.1 1074.9557,-263.1 "/>
<text text-anchor="start" x="529.6441" y="-246.5" font-family="Times,serif" font-size="14.00" fill="#000000">Internal:</text>
<text text-anchor="start" x="529.6441" y="-229.7" font-family="Times,serif" font-size="14.00" fill="#000000"> &#160;&#160;&#160;_beforeTokenTransfer(from: address, to: address, amount: uint256)</text>
<text text-anchor="start" x="529.6441" y="-212.9" font-family="Times,serif" font-size="14.00" fill="#000000">External:</text>
<text text-anchor="start" x="529.6441" y="-196.1" font-family="Times,serif" font-size="14.00" fill="#000000"> &#160;&#160;&#160;redeem()</text>
<text text-anchor="start" x="529.6441" y="-179.3" font-family="Times,serif" font-size="14.00" fill="#000000"> &#160;&#160;&#160;rescueExpiredTokens()</text>
<text text-anchor="start" x="529.6441" y="-162.5" font-family="Times,serif" font-size="14.00" fill="#000000">Public:</text>
<text text-anchor="start" x="529.6441" y="-145.7" font-family="Times,serif" font-size="14.00" fill="#000000"> &#160;&#160;&#160;constructor(_torn: bytes32, _governance: bytes32, _duration: uint256, _airdrops: Recipient[])</text>
<text text-anchor="start" x="529.6441" y="-128.9" font-family="Times,serif" font-size="14.00" fill="#000000"> &#160;&#160;&#160;blockTimestamp(): uint256</text>
</g>
<!-- 9&#45;&gt;1 -->
<g id="edge14" class="edge">
<title>9&#45;&gt;1</title>
<path fill="none" stroke="#000000" d="M521.5586,-299.0144C452.8566,-323.621 385.467,-360.6568 338.2999,-416.4 214.7986,-562.3567 201.3884,-793.4048 207.2487,-937.9703"/>
<polygon fill="#000000" stroke="#000000" points="203.7638,-938.3918 207.7026,-948.2272 210.757,-938.0822 203.7638,-938.3918"/>
</g>
<!-- 9&#45;&gt;4 -->
<g id="edge11" class="edge">
<title>9&#45;&gt;4</title>
<path fill="none" stroke="#000000" d="M725.2165,-380.0936C723.2876,-383.5192 721.3402,-386.9778 719.3768,-390.4647"/>
<polygon fill="none" stroke="#000000" points="710.2092,-385.3455 704.6392,-416.6381 728.5078,-395.649 710.2092,-385.3455"/>
</g>
<!-- 9&#45;&gt;5 -->
<g id="edge13" class="edge">
<title>9&#45;&gt;5</title>
<path fill="none" stroke="#000000" stroke-dasharray="5,2" d="M871.6969,-380.0936C902.6762,-434.8765 938.4148,-498.0758 968.3023,-550.9283"/>
<polygon fill="#000000" stroke="#000000" points="965.2686,-552.674 973.2377,-559.6557 971.3618,-549.2283 965.2686,-552.674"/>
</g>
<!-- 9&#45;&gt;8 -->
<g id="edge12" class="edge">
<title>9&#45;&gt;8</title>
<path fill="none" stroke="#000000" d="M1075.0679,-314.7506C1143.8654,-339.2046 1214.4168,-372.2312 1272.2999,-416.4 1324.1521,-455.9668 1366.0919,-515.8344 1395.4588,-566.8009"/>
<polygon fill="none" stroke="#000000" points="1386.3678,-572.0592 1410.0588,-593.2485 1404.7525,-561.9101 1386.3678,-572.0592"/>
</g>
<!-- 9struct0 -->
<g id="node11" class="node">
<title>9struct0</title>
<polygon fill="#f2f2f2" stroke="#000000" points="744.2161,-.5 744.2161,-83.7 852.3837,-83.7 852.3837,-.5 744.2161,-.5"/>
<text text-anchor="middle" x="798.2999" y="-67.1" font-family="Times,serif" font-size="14.00" fill="#000000">&lt;&lt;struct&gt;&gt;</text>
<text text-anchor="middle" x="798.2999" y="-50.3" font-family="Times,serif" font-size="14.00" fill="#000000">Recipient</text>
<polyline fill="none" stroke="#000000" points="744.2161,-42.1 852.3837,-42.1 "/>
<text text-anchor="start" x="752.2161" y="-25.5" font-family="Times,serif" font-size="14.00" fill="#000000">to: address</text>
<text text-anchor="start" x="752.2161" y="-8.7" font-family="Times,serif" font-size="14.00" fill="#000000">amount: uint256</text>
</g>
<!-- 9struct0&#45;&gt;9 -->
<g id="edge1" class="edge">
<title>9struct0&#45;&gt;9</title>
<path fill="none" stroke="#000000" d="M798.2999,-83.732C798.2999,-91.3193 798.2999,-99.6092 798.2999,-108.3079"/>
<polygon fill="#000000" stroke="#000000" points="798.3,-108.3955 802.2999,-114.3955 798.2999,-120.3955 794.2999,-114.3955 798.3,-108.3955"/>
</g>
</g>
</svg>
